{"title":"Married to the Mob (1988) 720p AC3 HDTV","uid":9677631,"size":2246744805,"categoryP":"video","categoryS":"hd___movies","magnet":"?xt=urn:btih:21d13522dac448160b481aad13fdf77ce222d784&amp;dn=Married+to+the+Mob+%281988%29+720p+AC3+HDTV&amp;tr=udp%3A%2F%2Ftracker.openbittorrent.com%3A80&amp;tr=udp%3A%2F%2Fopen.demonii.com%3A1337&amp;tr=udp%3A%2F%2Ftracker.coppersurfer.tk%3A6969&amp;tr=udp%3A%2F%2Fexodus.desync.com%3A6969","seeders":0,"leechers":1,"uploader":"nabsltd","files":2,"time":1393593951,"description":"This is my own rip.\n\nThere is a small logo for 10 seconds every 30 minutes.\n\nGeneral\nUnique ID                        : 230962558349444117978011567463474058884 (0xADC1C54DA09394FDA3215607367AD684)\nFormat                           : Matroska\nFormat version                   : Version 4 / Version 2\nFile size                        : 2.07 GiB\nDuration                         : 1h 44mn\nOverall bit rate mode            : Variable\nOverall bit rate                 : 2 847 Kbps\nEncoded date                     : UTC 2014-02-28 04:09:10\nWriting application              : mkvmerge v6.5.0 ('Isn't she lovely') built on Oct 20 2013 12:50:05\nWriting library                  : libebml v1.3.0 + libmatroska v1.4.1\n\nVideo\nID                               : 1\nFormat                           : AVC\nFormat/Info                      : Advanced Video Codec\nFormat profile                   : &lt;a class=&quot;__cf_email__&quot; href=&quot;/cdn-cgi/l/email-protection&quot; data-cfemail=&quot;c088a9a7a8808cf4eef1&quot;&gt;[email&amp;#160;protected]&lt;/a&gt;&lt;script cf-hash='f9e31' type=&quot;text/javascript&quot;&gt;\n/* &lt;![CDATA[ */!function(){try{var t=&quot;currentScript&quot;in document?document.currentScript:function(){for(var t=document.getElementsByTagName(&quot;script&quot;),e=t.length;e--;)if(t[e].getAttribute(&quot;cf-hash&quot;))return t[e]}();if(t&amp;&amp;t.previousSibling){var e,r,n,i,c=t.previousSibling,a=c.getAttribute(&quot;data-cfemail&quot;);if(a){for(e=&quot;&quot;,r=parseInt(a.substr(0,2),16),n=2;a.length-n;n+=2)i=parseInt(a.substr(n,2),16)^r,e+=String.fromCharCode(i);e=document.createTextNode(e),c.parentNode.replaceChild(e,c)}}}catch(u){}}();/* ]]&gt; */&lt;/script&gt;\nFormat settings, CABAC           : Yes\nFormat settings, ReFrames        : 7 frames\nCodec ID                         : V_MPEG4/ISO/AVC\nDuration                         : 1h 44mn\nBit rate mode                    : Variable\nBit rate                         : 2 406 Kbps\nMaximum bit rate                 : 8.8 Mbps\nWidth                            : 1 280 pixels\nHeight                           : 692 pixels\nDisplay aspect ratio             : 1.850\nFrame rate                       : 23.976 fps\nColor space                      : YUV\nChroma subsampling               : 4:2:0\nBit depth                        : 8 bits\nScan type                        : Progressive\nBits/(Pixel*Frame)               : 0.113\nStream size                      : 1.75 GiB (85%)\nWriting library                  : x264 core 135 r2345 f0c1c53\nLanguage                         : English\nDefault                          : Yes\nForced                           : No\n\nAudio\nID                               : 2\nFormat                           : AC-3\nFormat/Info                      : Audio Coding 3\nMode extension                   : CM (complete main)\nCodec ID                         : A_AC3\nDuration                         : 1h 44mn\nBit rate mode                    : Constant\nBit rate                         : 384 Kbps\nChannel(s)                       : 6 channels\nChannel positions                : Front: L C R, Side: L R, LFE\nSampling rate                    : 48.0 KHz\nBit depth                        : 16 bits\nCompression mode                 : Lossy\nStream size                      : 286 MiB (13%)\nLanguage                         : English\nDefault                          : Yes\nForced                           : No\n\nMenu\n00:00:00.000                     : Logo/Main Title\n00:02:30.984                     : Rush Hour Is Murder\n00:04:51.833                     : Hairy Judgment\n00:07:02.464                     : Baby Sharks\n00:08:22.983                     : The House of Loot\n00:11:50.418                     : One Big Happy Family\n00:15:49.615                     : A Father's Love\n00:18:47.835                     : The Feds on Track\n00:21:05.806                     : Cucumber's Family\n00:21:49.934                     : Kiss, You're on Camera\n00:24:41.230                     : Bumper Cars\n00:26:09.359                     : Because He Cares\n00:28:51.063                     : To Tony Through Angela\n00:30:27.284                     : A Step Down\n00:31:21.922                     : Connie's Got a Wish\n00:32:27.320                     : A Tough New World\n00:34:36.950                     : The Chicken Lickin'\n00:37:12.772                     : Bugging Her\n00:42:41.976                     : &quot;A Brand New You&quot;\n00:46:27.034                     : A Date for Angela\n00:50:28.484                     : Burger, Fries, Lead\n00:55:30.953                     : Nightly Disturbance\n01:03:56.124                     : Her Second Chance\n01:07:37.053                     : The Same Methods\n01:10:33.563                     : Pulling His Chain\n01:13:52.470                     : The Best Wife\n01:18:31.123                     : Nothing's Wrong\n01:22:42.249                     : Gift Giving\n01:24:09.294                     : Showdown\n01:31:21.267                     : &quot;Another Bad Dream&quot;\n01:33:42.659                     : His Second Chance\n01:36:34.789                     : End Credits\n","torrent":{"xt":"urn:btih:21d13522dac448160b481aad13fdf77ce222d784","amp;dn":"Married+to+the+Mob+%281988%29+720p+AC3+HDTV","amp;tr":["udp%3A%2F%2Ftracker.openbittorrent.com%3A80","udp%3A%2F%2Fopen.demonii.com%3A1337","udp%3A%2F%2Ftracker.coppersurfer.tk%3A6969","udp%3A%2F%2Fexodus.desync.com%3A6969"],"infoHash":"21d13522dac448160b481aad13fdf77ce222d784","infoHashBuffer":{"type":"Buffer","data":[33,209,53,34,218,196,72,22,11,72,26,173,19,253,247,124,226,34,215,132]},"announce":[],"urlList":[]}}